<svg xmlns="http://www.w3.org/2000/svg" width="59" height="56" viewBox="0 0 59 56"><defs><style>.a,.f{fill:none;}.a{stroke:#707070;}.b,.d{fill:#fff;}.b{fill-rule:evenodd;}.c{fill:#ba1a1a;}.d{font-size:10px;font-family:Poppins-Bold, Poppins;font-weight:700;}.e{stroke:none;}</style></defs><g transform="translate(-1600 -19)"><g class="a" transform="translate(1600 19)"><circle class="e" cx="28" cy="28" r="28"/><circle class="f" cx="28" cy="28" r="27.5"/></g><path class="b" d="M1396,1093.25a.75.75,0,0,1,.75.75v3a.75.75,0,0,1-1.5,0v-3A.75.75,0,0,1,1396,1093.25Zm4.623.01a.75.75,0,0,1,.617.863l-.5,3a.75.75,0,1,1-1.48-.246l.5-3A.75.75,0,0,1,1400.623,1093.26Zm-9.246,0a.75.75,0,0,1,.863.617l.5,3a.75.75,0,0,1-1.48.246l-.5-3A.75.75,0,0,1,1391.377,1093.26Zm4.623-5.51a1.249,1.249,0,1,0,.884.366A1.251,1.251,0,0,0,1396,1087.75Zm-2.646,2h-6.469l1.576,9.456a1.251,1.251,0,0,0,1.233,1.044h12.612a1.251,1.251,0,0,0,1.233-1.044l1.576-9.456h-6.469a2.75,2.75,0,0,1-5.292,0Zm9.176-7.28a.749.749,0,0,1,0,1.06l-4.129,4.129a2.714,2.714,0,0,1,.245.591H1407a.75.75,0,0,1,0,1.5h-.365l-1.617,9.7a2.75,2.75,0,0,1-2.712,2.3h-12.612a2.75,2.75,0,0,1-2.712-2.3l-1.617-9.7H1385a.75.75,0,0,1,0-1.5h8.354a2.75,2.75,0,0,1,3.987-1.651l4.129-4.129A.749.749,0,0,1,1402.53,1082.47Z" transform="translate(232 -1045)"/><circle class="c" cx="10" cy="10" r="10" transform="translate(1639 19)"/><text class="d" transform="translate(1646 33)"><tspan x="0" y="0">3</tspan></text></g></svg>