<svg xmlns="http://www.w3.org/2000/svg" xmlns:xlink="http://www.w3.org/1999/xlink" width="89" height="89" viewBox="0 0 89 89"><defs><style>.a{fill:#eeab2e;}.b{fill:none;stroke:#121212;stroke-linecap:round;stroke-miterlimit:10;stroke-width:1.5px;}.c{fill:#121212;}.d{filter:url(#a);}</style><filter id="a" x="0" y="0" width="89" height="89" filterUnits="userSpaceOnUse"><feOffset dy="3" input="SourceAlpha"/><feGaussianBlur stdDeviation="3" result="b"/><feFlood flood-opacity="0.161"/><feComposite operator="in" in2="b"/><feComposite in="SourceGraphic"/></filter></defs><g transform="translate(-1820 -982)"><g class="d" transform="matrix(1, 0, 0, 1, 1820, 982)"><path class="a" d="M35.5,0A35.5,35.5,0,1,1,0,35.5,35.5,35.5,0,0,1,35.5,0Z" transform="translate(9 6)"/></g><path class="b" d="M0,3.26A3.26,3.26,0,0,1,3.26,0H27.168a3.26,3.26,0,0,1,3.26,3.26V18.474a3.26,3.26,0,0,1-3.26,3.26h-6.5a2.173,2.173,0,0,0-1.758.9L16.093,26.5a1.087,1.087,0,0,1-1.758,0L11.518,22.63a2.173,2.173,0,0,0-1.758-.9H3.26A3.26,3.26,0,0,1,0,18.474Z" transform="translate(1849.285 1010.025)"/><circle class="c" cx="1.639" cy="1.639" r="1.639" transform="translate(1857.395 1019.798)"/><circle class="c" cx="1.639" cy="1.639" r="1.639" transform="translate(1862.859 1019.798)"/><circle class="c" cx="1.639" cy="1.639" r="1.639" transform="translate(1868.324 1019.798)"/></g></svg>