<svg xmlns="http://www.w3.org/2000/svg" width="56" height="56" viewBox="0 0 56 56"><defs><style>.a,.e{fill:none;}.a{stroke:#707070;}.b{opacity:0.8;}.c{fill:#fff;}.d{stroke:none;}</style></defs><g transform="translate(-0.268)"><g class="a" transform="translate(0.268)"><circle class="d" cx="28" cy="28" r="28"/><circle class="e" cx="28" cy="28" r="27.5"/></g><g class="b" transform="translate(-88.34 -10.69)"><path class="c" d="M124.308,34.43h-3.19V31.2a1.784,1.784,0,0,0-1.78-1.78h-12.6a1.784,1.784,0,0,0-1.78,1.78V42.68a1.784,1.784,0,0,0,1.78,1.78h1.15a3.5,3.5,0,0,0,7,0h4.07a3.5,3.5,0,0,0,7,0h.52a1.784,1.784,0,0,0,1.78-1.78v-4.3A3.952,3.952,0,0,0,124.308,34.43Zm-12.92,11.53a1.5,1.5,0,1,1,1.5-1.5A1.5,1.5,0,0,1,111.388,45.96Zm11.07,0a1.5,1.5,0,1,1,1.5-1.5A1.5,1.5,0,0,1,122.458,45.96Zm3.8-6.46a.5.5,0,0,1-.5.5h-3.59a.5.5,0,0,1-.5-.5V36.93a.5.5,0,0,1,.5-.5h2.4a1.694,1.694,0,0,1,1.69,1.69Z"/></g></g></svg>