<svg xmlns="http://www.w3.org/2000/svg" width="56" height="56" viewBox="0 0 56 56"><defs><style>.a,.e{fill:none;}.a{stroke:#707070;}.b{opacity:0.8;}.c{fill:#fff;stroke:rgba(0,0,0,0);}.d{stroke:none;}</style></defs><g class="a"><circle class="d" cx="28" cy="28" r="28"/><circle class="e" cx="28" cy="28" r="27.5"/></g><g class="b" transform="translate(-48.313 -7.96)"><path class="c" d="M83.394,40.03a9.6,9.6,0,1,0-14.161,0h0L67.283,44.45a1.019,1.019,0,0,0,.16,1.07,1,1,0,0,0,1.04.29l2.45-.73,1.11,2.31a1,1,0,0,0,.9.57h.02a1.01,1.01,0,0,0,.9-.6l1.869-4.23h0c.19.01.38.02.58.02s.4-.01.59-.02h0l1.868,4.23a1.01,1.01,0,0,0,.9.6h.01a.982.982,0,0,0,.9-.57l1.11-2.31,2.45.73a1.009,1.009,0,0,0,1.04-.29,1.022,1.022,0,0,0,.17-1.07ZM70.213,33.55a6.1,6.1,0,1,1,6.1,6.1A6.105,6.105,0,0,1,70.213,33.55Z"/><path class="c" d="M77.663,31.49,75.6,32.83l-.26-.42a1.25,1.25,0,1,0-2.11,1.34l.94,1.49a1.256,1.256,0,0,0,1.74.38l3.11-2.04a1.236,1.236,0,0,0,.37-1.72A1.25,1.25,0,0,0,77.663,31.49Z"/></g></svg>