<svg xmlns="http://www.w3.org/2000/svg" width="56" height="56" viewBox="0 0 56 56"><defs><style>.a,.d{fill:none;}.a{stroke:#707070;}.b{fill:#fff;fill-rule:evenodd;}.c{stroke:none;}</style></defs><g transform="translate(-1600 -19)"><g class="a" transform="translate(1600 19)"><circle class="c" cx="28" cy="28" r="28"/><circle class="d" cx="28" cy="28" r="27.5"/></g><path class="b" d="M1204.158,363.913a7.006,7.006,0,0,1,9.332.517,6.76,6.76,0,0,1,.29,9.367c-1.587,1.729-3.467,3.678-5.184,5.2a21.26,21.26,0,0,1-2.437,1.912,3.195,3.195,0,0,1-4.318,0A21.176,21.176,0,0,1,1199.4,379c-1.717-1.523-3.6-3.472-5.184-5.2a6.759,6.759,0,0,1,.29-9.367,7,7,0,0,1,9.331-.517l.159.127Zm8.271,1.577a5.506,5.506,0,0,0-7.333-.406l-1.1.877-1.1-.877a5.507,5.507,0,0,0-7.334.406,5.262,5.262,0,0,0-.245,7.293c1.575,1.715,3.414,3.621,5.074,5.093a19.782,19.782,0,0,0,2.256,1.774,1.806,1.806,0,0,0,2.689,0,19.7,19.7,0,0,0,2.257-1.774c1.659-1.472,3.5-3.378,5.074-5.093A5.261,5.261,0,0,0,1212.429,365.49Z" transform="translate(424 -325.064)"/></g></svg>