<svg xmlns="http://www.w3.org/2000/svg" width="56" height="56" viewBox="0 0 56 56"><defs><style>.a,.d{fill:none;}.a{stroke:#707070;}.b{fill:#fff;fill-rule:evenodd;opacity:0.797;}.c{stroke:none;}</style></defs><g class="a"><circle class="c" cx="28" cy="28" r="28"/><circle class="d" cx="28" cy="28" r="27.5"/></g><path class="b" d="M1433.352,748.071A2.6,2.6,0,0,1,1436,745.25h3.558a2.749,2.749,0,0,1,2.609,1.88l1.154,3.46a2.75,2.75,0,0,1-.665,2.814l-.566.566a.227.227,0,0,0-.038.283,12.129,12.129,0,0,0,3.7,3.68.231.231,0,0,0,.292-.035l.554-.554a2.75,2.75,0,0,1,2.814-.665l3.46,1.154a2.749,2.749,0,0,1,1.88,2.609V764a2.6,2.6,0,0,1-2.821,2.648A20.756,20.756,0,0,1,1433.352,748.071Z" transform="translate(-1416.515 -728.456)"/></svg>