<svg xmlns="http://www.w3.org/2000/svg" width="56" height="56" viewBox="0 0 56 56"><defs><style>.a,.e{fill:none;}.a{stroke:#707070;}.b{opacity:0.8;}.c{fill:#fff;stroke:rgba(0,0,0,0);}.d{stroke:none;}</style></defs><g transform="translate(0.184)"><g class="a" transform="translate(-0.184)"><circle class="d" cx="28" cy="28" r="28"/><circle class="e" cx="28" cy="28" r="27.5"/></g><g class="b" transform="translate(-894.876 -130.035)"><path class="c" d="M929.472,153.9v-1.89a6.965,6.965,0,1,0-13.93,0v1.89a2.942,2.942,0,0,0-2.85,2.95v9.22a2.966,2.966,0,0,0,2.96,2.96h13.71a2.966,2.966,0,0,0,2.96-2.96v-9.22A2.949,2.949,0,0,0,929.472,153.9Zm-6.96-6.86a4.951,4.951,0,0,1,4.95,4.97v1.88h-9.91v-1.88A4.968,4.968,0,0,1,922.512,147.045Zm.99,15.49v1.72a1,1,0,0,1-2,0v-1.72a2.06,2.06,0,1,1,2,0Z"/></g></g></svg>