<svg xmlns="http://www.w3.org/2000/svg" width="56" height="56" viewBox="0 0 56 56"><defs><style>.a,.d{fill:none;}.a{stroke:#707070;}.b{fill:#fff;fill-rule:evenodd;}.c{stroke:none;}</style></defs><g transform="translate(-1600 -19)"><g class="a" transform="translate(1600 19)"><circle class="c" cx="28" cy="28" r="28"/><circle class="d" cx="28" cy="28" r="27.5"/></g><path class="b" d="M1492,852.75a9.25,9.25,0,0,0-9.2,8.325.132.132,0,0,0,.039.11.232.232,0,0,0,.165.065h18a.227.227,0,0,0,.164-.065.129.129,0,0,0,.04-.11A9.251,9.251,0,0,0,1492,852.75Zm3.244-1a5.75,5.75,0,1,0-6.488,0,10.76,10.76,0,0,0-7.453,9.179,1.678,1.678,0,0,0,1.7,1.823h18a1.678,1.678,0,0,0,1.7-1.823A10.76,10.76,0,0,0,1495.244,851.748Zm-3.244-9a4.25,4.25,0,1,0,4.25,4.25A4.25,4.25,0,0,0,1492,842.75Z" transform="translate(135.706 -806.25)"/></g></svg>